Coordinates
version=1
nRows=13
nColumns=22
inDegrees=yes

Units are S.I. units (second, meters, Newtons, ...)
If the header above contains a line with 'inDegrees', this indicates whether rotational values are in degrees (yes) or radians (no).

endheader
time	pelvis_tilt	pelvis_list	pelvis_rotation	pelvis_tx	pelvis_ty	pelvis_tz	hip_flexion_r	hip_adduction_r	hip_rotation_r	knee_angle_r	ankle_angle_r	subtalar_angle_r	hip_flexion_l	hip_adduction_l	hip_rotation_l	knee_angle_l	ankle_angle_l	subtalar_angle_l	lumbar_extension	lumbar_bending	lumbar_rotation
      2.65000000	      3.07501056	      3.43462513	    174.64397908	     -0.60199908	      0.99482758	     -0.02187542	      8.32798663	      7.43575929	     -0.78185278	    -25.97730499	     18.69307566	     -2.25448573	     25.43216101	     -4.74097535	     -3.06031446	    -10.10935297	      6.08008787	      4.19108239	    -13.45584104	      2.73874025	     11.22906171
      2.66000000	      3.19620468	      3.58554295	    174.58077939	     -0.59336882	      0.99516341	     -0.02258225	      9.11785564	      7.66733951	     -0.89487293	    -26.18971657	     18.27272930	     -2.24293971	     25.85475388	     -5.06583114	     -4.00789963	    -10.76497744	      6.01175303	      3.90619394	    -13.56715826	      2.94805894	     11.17125388
      2.67000000	      3.25744091	      3.70115838	    174.52903491	     -0.58494243	      0.99576756	     -0.02327623	      9.81551451	      7.85643495	     -0.99870538	    -26.36035795	     17.78143551	     -2.19542632	     26.22213128	     -5.36347537	     -4.94360590	    -11.65153086	      5.94542236	      3.59976821	    -13.70997203	      3.09993642	     11.09112770
      2.68000000	      3.25250821	      3.78488104	    174.49415671	     -0.57672333	      0.99664590	     -0.02396364	     10.38653746	      8.00945257	     -1.09292257	    -26.44140720	     17.24134437	     -2.15591331	     26.50845788	     -5.63309639	     -5.80881653	    -12.72837887	      5.88837499	      3.31129507	    -13.89317410	      3.19850329	     10.98765300
      2.69000000	      3.23175916	      3.82029571	    174.48246738	     -0.56867810	      0.99767850	     -0.02464099	     10.89199005	      8.10933792	     -1.21544266	    -26.44194637	     16.65607770	     -2.15279142	     26.75626771	     -5.85123829	     -6.52267934	    -13.95712831	      5.85357380	      3.00425914	    -14.05869866	      3.23238818	     10.83097787
      2.70000000	      3.18300831	      3.82303559	    174.48552164	     -0.56077936	      0.99886146	     -0.02531772	     11.31275621	      8.17200786	     -1.36478602	    -26.35299735	     16.04595570	     -2.20601864	     26.94231855	     -6.02841596	     -7.04440175	    -15.30727915	      5.84104955	      2.72415631	    -14.22997796	      3.22019439	     10.63870850
      2.71000000	      3.09794180	      3.80850489	    174.49648697	     -0.55300993	      1.00019123	     -0.02600644	     11.63079397	      8.21494283	     -1.52692345	    -26.15840498	     15.38929740	     -2.26591227	     27.05098793	     -6.17338669	     -7.34909476	    -16.75305064	      5.88059567	      2.53709079	    -14.42452871	      3.17442739	     10.42958589
      2.72000000	      3.07049182	      3.76467344	    174.53501588	     -0.54534194	      1.00144612	     -0.02665290	     11.96039057	      8.22496019	     -1.74309302	    -25.87759266	     14.76861576	     -2.44117653	     27.20706640	     -6.26284068	     -7.41359410	    -18.30532551	      5.92132401	      2.31876378	    -14.52655421	      3.10236166	     10.17517330
      2.73000000	      3.00626779	      3.70909863	    174.56594756	     -0.53776645	      1.00278067	     -0.02727982	     12.21717716	      8.21537172	     -1.97127775	    -25.54809392	     14.09980621	     -2.56023765	     27.28063352	     -6.31089530	     -7.25733840	    -19.91378695	      6.01929640	      2.19913445	    -14.66033861	      3.00925295	      9.94174810
      2.74000000	      3.00718145	      3.62908036	    174.61788778	     -0.53028906	      1.00396527	     -0.02782037	     12.51118381	      8.17556651	     -2.24019234	    -25.16652985	     13.47748530	     -2.81374693	     27.41131958	     -6.29716924	     -6.90798902	    -21.60479958	      6.13739176	      2.08447223	    -14.69465609	      2.90361091	      9.67105088
      2.75000000	      2.97761907	      3.55281709	    174.66823054	     -0.52293056	      1.00517135	     -0.02830270	     12.73297070	      8.13798786	     -2.47176752	    -24.73060850	     12.84811263	     -2.98192933	     27.47298847	     -6.24833030	     -6.39893225	    -23.34224053	      6.31188832	      2.03975953	    -14.74960474	      2.80301864	      9.41070488
      2.76000000	      2.92945981	      3.47444513	    174.71067954	     -0.51569488	      1.00635158	     -0.02870485	     12.91298594	      8.09497391	     -2.66868263	    -24.27373615	     12.21708585	     -3.10474164	     27.47671794	     -6.15973796	     -5.77403605	    -25.11750744	      6.53671424	      2.02126909	    -14.80951203	      2.70441680	      9.18843507
      2.77000000	      2.87230235	      3.38786907	    174.75702117	     -0.50861273	      1.00746567	     -0.02899511	     13.06452517	      8.03882348	     -2.82919077	    -23.80367132	     11.60758827	     -3.22751500	     27.43700842	     -6.02842817	     -5.09454424	    -26.93199119	      6.81256076	      2.01491839	    -14.85491751	      2.60569933	      8.97148418
